#!OML:ASF F:\VICON\USERDATA\INSTALL\rory3\rory3.ASF
:FULLY-SPECIFIED
:DEGREES
890
root 0.825909 15.5486 -16.4276 32.2192 -22.6478 -369.461
lowerback -7.57405 3.94696 -9.90807
upperback -10.5561 5.27561 -3.92349
thorax -7.55952 3.16934 1.33859
lowerneck -14.3324 1.85676 4.46944
upperneck 35.3164 -0.84152 5.90173
head 14.6759 0.996244 1.49973
rclavicle 1.23246e-014 -2.70347e-014
rhumerus 31.5076 -29.9885 -37.2791
rradius 23.144
rwrist -6.9395
rhand -0.518753 7.2261
rfingers 7.12502
rthumb 25.0934 -21.1451
lclavicle 1.23246e-014 -2.70347e-014
lhumerus 5.89258 24.4203 15.4295
lradius 19.0101
lwrist -34.114
lhand 10.1121 25.9426
lfingers 7.12502
lthumb 35.2327 52.444
rfemur -13.4242 4.34915 30.7561
rtibia 32.347
rfoot -24.2554 -8.4374
rtoes -22.4035
lfemur 103.9 158.062 140.539
ltibia 66.4742
lfoot -32.3038 20.7757
ltoes -6.99797
891
root 0.848035 15.5341 -16.5306 31.8351 -23.4262 -369.29
lowerback -7.81563 4.05919 -9.81969
upperback -10.3265 5.46219 -4.07889
thorax -7.15628 3.22926 1.16663
lowerneck -13.891 2.13972 5.27652
upperneck 34.4814 -0.32198 5.194
head 14.1847 1.20261 1.11816
rclavicle 1.82882e-014 -2.54444e-014
rhumerus 33.0015 -30.7787 -38.93
rradius 22.078
rwrist -4.17077
rhand 0.925829 7.4989
rfingers 7.12502
rthumb 26.4769 -20.6714
lclavicle 1.82882e-014 -2.54444e-014
lhumerus 7.33758 26.7166 16.8175
lradius 18.5467
lwrist -37.3349
lhand 12.4164 26.0428
lfingers 7.12502
lthumb 37.4144 51.999
rfemur -13.5818 4.6428 31.3962
rtibia 32.3679
rfoot -25.2487 -9.41859
rtoes -15.7852
lfemur 103.538 157.78 140.27
ltibia 66.763
lfoot -31.5531 21.7598
ltoes -8.63417
892
root 0.869121 15.4994 -16.6361 31.4434 -24.9637 -368.858
lowerback -8.43513 4.21504 -10.3319
upperback -10.0011 5.77975 -4.28247
thorax -6.52403 3.38213 1.30596
lowerneck -14.0664 2.45053 5.44536
upperneck 34.1921 0.151359 5.01229
head 14.0914 1.39792 1.08471
rclavicle -5.96354e-015 -1.11319e-014
rhumerus 35.5655 -32.2962 -41.6652
rradius 20.7363
rwrist -0.418304
rhand 2.73535 8.09794
rfingers 7.12502
rthumb 28.2076 -19.7993
lclavicle -5.96354e-015 -1.11319e-014
lhumerus 8.03228 24.5253 17.2264
lradius 18.9399
lwrist -35.2825
lhand 13.3255 30.361
lfingers 7.12502
lthumb 38.2732 56.0854
rfemur -13.4826 6.11066 31.368
rtibia 32.326
rfoot -27.0352 -10.3344
rtoes -2.80441
lfemur 103.207 157.095 139.337
ltibia 67.0218
lfoot -31.4491 21.844
ltoes -7.05552
893
root 0.892176 15.454 -16.7751 31.1503 -26.0464 -368.422
lowerback -8.51195 4.4493 -10.4967
upperback -10.2974 6.05423 -4.68097
thorax -6.82018 3.5255 0.954436
lowerneck -12.6955 2.47461 5.50266
upperneck 33.8406 0.216316 5.27878
head 13.6322 1.44069 1.15761
rclavicle 1.01579e-013 1.27222e-014
rhumerus 37.164 -33.6786 -44.1983
rradius 19.4062
rwrist 3.69388
rhand 4.0908 8.74307
rfingers 7.12502
rthumb 29.5024 -18.9332
lclavicle 1.01579e-013 1.27222e-014
lhumerus 9.27481 23.7697 17.8836
lradius 18.8876
lwrist -35.1284
lhand 14.2885 31.5581
lfingers 7.12502
lthumb 39.1815 57.0259
rfemur -13.5037 7.2839 31.5466
rtibia 32.3414
rfoot -28.8614 -15.5089
rtoes -2.93277
lfemur 102.714 156.752 138.615
ltibia 67.3714
lfoot -31.6963 21.8663
ltoes -1.64958
894
root 0.923778 15.4511 -16.873 30.7522 -27.2406 -368.292
lowerback -8.5345 4.75563 -10.2307
upperback -10.4021 6.42957 -4.90685
thorax -6.89705 3.68632 0.568701
lowerneck -12.1421 2.57097 5.29682
upperneck 33.7723 0.382132 5.51915
head 13.476 1.50779 1.30127
rclavicle -4.33351e-014 5.88403e-014
rhumerus 38.8793 -34.2233 -46.2712
rradius 18.4074
rwrist 6.73591
rhand 4.59706 8.57314
rfingers 7.12502
rthumb 29.9856 -19.0167
lclavicle -4.33351e-014 5.88403e-014
lhumerus 10.1494 23.2292 18.4075
lradius 18.7584
lwrist -35.7025
lhand 14.6442 30.5932
lfingers 7.12502
lthumb 39.5167 55.9632
rfemur -13.0862 8.34811 31.6388
rtibia 32.3114
rfoot -31.2249 -18.3489
rtoes -1.72407
lfemur 102.185 156.198 138.296
ltibia 68.0286
lfoot -31.8079 23.205
ltoes -1.44566
895
root 0.956757 15.4288 -16.9826 30.2835 -28.3163 -368.038
lowerback -8.33881 4.96173 -10.1641
upperback -10.4348 6.66433 -4.98601
thorax -7.04667 3.79704 0.424854
lowerneck -12.2802 2.7997 5.08151
upperneck 34.0368 0.736885 5.55609
head 13.6143 1.64711 1.41716
rclavicle 2.66371e-014 3.18055e-014
rhumerus 40.4352 -34.0418 -47.5685
rradius 17.7227
rwrist 8.6845
rhand 5.24083 7.87355
rfingers 7.12502
rthumb 30.5997 -19.6034
lclavicle 2.66371e-014 3.18055e-014
lhumerus 11.0485 23.081 19.0723
lradius 18.8276
lwrist -35.6206
lhand 15.6673 30.721
lfingers 7.12502
lthumb 40.4794 55.8006
rfemur -12.7547 9.43406 31.6626
rtibia 32.3917
rfoot -34.0702 -20.3031
rtoes 0.568401
lfemur 101.797 155.774 137.861
ltibia 68.4504
lfoot -32.3919 22.3235
ltoes -2.77609
896
root 0.989937 15.4066 -17.0925 29.6277 -29.455 -367.683
lowerback -8.99686 5.02578 -10.1149
upperback -9.64327 6.90817 -5.01733
thorax -5.80702 3.85902 0.517194
lowerneck -13.2551 3.21387 5.08474
upperneck 34.0273 1.38443 5.21029
head 13.8194 1.89277 1.39748
rclavicle 1.88845e-014 -2.22639e-014
rhumerus 45.6943 -36.4455 -53.0567
rradius 16.3498
rwrist 14.0861
rhand 6.11978 7.94492
rfingers 7.12502
rthumb 31.4374 -19.3722
lclavicle 1.88845e-014 -2.22639e-014
lhumerus 12.4612 25.7772 20.2529
lradius 18.4953
lwrist -37.2232
lhand 16.1813 29.7904
lfingers 7.12502
lthumb 40.9624 54.7187
rfemur -12.436 10.3417 31.5821
rtibia 32.4336
rfoot -35.9631 -23.1932
rtoes 0.0880058
lfemur 101.74 155.332 137.414
ltibia 68.6089
lfoot -31.9019 24.1196
ltoes -1.81496
897
root 1.0273 15.3905 -17.2282 29.1119 -30.1177 -366.874
lowerback -8.29085 5.13262 -10.3508
upperback -10.3099 6.88251 -5.22064
thorax -6.95355 3.89599 0.281764
lowerneck -11.8671 3.31963 4.991
upperneck 34.1141 1.66126 5.24365
head 13.5445 1.99179 1.4385
rclavicle -3.85642e-014 -2.06736e-014
rhumerus 48.4932 -37.8577 -57.1009
rradius 15.1533
rwrist 19.4981
rhand 7.0759 8.33883
rfingers 7.12502
rthumb 32.3479 -18.7967
lclavicle -3.85642e-014 -2.06736e-014
lhumerus 13.1642 24.7818 20.749
lradius 18.4875
lwrist -37.516
lhand 16.4046 28.9607
lfingers 7.12502
lthumb 41.1722 53.8221
rfemur -12.8297 10.9067 31.2381
rtibia 32.76
rfoot -38.4246 -25.0525
rtoes 2.07824
lfemur 101.491 155.529 136.654
ltibia 68.4193
lfoot -31.8514 23.1857
ltoes -1.26921
898
root 1.0592 15.3823 -17.3516 28.577 -31.1524 -366.061
lowerback -8.31119 5.24064 -10.6925
upperback -10.3764 7.01536 -5.4474
thorax -7.05436 3.97501 0.214698
lowerneck -11.6461 3.54846 4.93355
upperneck 34.1517 2.02796 5.24462
head 13.5071 2.14219 1.49846
rclavicle -2.92213e-014 -3.18055e-014
rhumerus 52.1594 -39.0286 -61.4169
rradius 14.2013
rwrist 24.0708
rhand 7.89773 8.41684
rfingers 7.12502
rthumb 33.1298 -18.5559
lclavicle -2.92213e-014 -3.18055e-014
lhumerus 14.1483 24.2513 21.1203
lradius 18.4313
lwrist -37.3399
lhand 16.1765 28.4556
lfingers 7.12502
lthumb 40.9579 53.3854
rfemur -13.0966 11.6819 30.4827
rtibia 33.0403
rfoot -41.4658 -24.5622
rtoes 8.46458
lfemur 101.332 155.436 135.728
ltibia 68.0612
lfoot -31.8505 22.112
ltoes -1.83352
899
root 1.0922 15.3748 -17.4802 28.0896 -32.0917 -365.108
lowerback -8.30927 5.24104 -11.2054
upperback -10.5205 7.00316 -5.55718
thorax -7.28586 4.00459 0.347627
lowerneck -11.8509 3.90224 4.712
upperneck 34.7584 2.55599 5.27785
head 13.8086 2.35823 1.65623
rclavicle -5.18828e-014 2.54444e-014
rhumerus 56.2988 -39.8311 -66.2599
rradius 13.3154
rwrist 28.9665
rhand 8.46633 8.34237
rfingers 7.12502
rthumb 33.6703 -18.514
lclavicle -5.18828e-014 2.54444e-014
lhumerus 15.0777 24.3054 21.6717
lradius 18.4393
lwrist -37.2891
lhand 16.3834 28.1245
lfingers 7.12502
lthumb 41.1522 52.9923
rfemur -13.7441 12.4081 29.5697
rtibia 33.4205
rfoot -43.2733 -25.0629
rtoes 11.5255
lfemur 101.153 155.646 134.794
ltibia 67.553
lfoot -31.6834 22.4651
ltoes -2.15803
900
root 1.12201 15.3668 -17.5894 27.2999 -33.0893 -364.39
lowerback -8.73557 5.23481 -11.4315
upperback -10.1632 7.10259 -5.49912
thorax -6.69797 4.04233 0.611698
lowerneck -12.9289 4.72102 5.19888
upperneck 35.8442 3.74222 4.65029
head 14.5701 2.86846 1.58068
rclavicle -1.07344e-014 -1.43125e-014
rhumerus 62.7036 -40.7915 -73.8132
rradius 12.3216
rwrist 35.5872
rhand 8.90853 8.33084
rfingers 7.12502
rthumb 34.0904 -18.4328
lclavicle -1.07344e-014 -1.43125e-014
lhumerus 16.238 25.505 22.5379
lradius 18.479
lwrist -37.7713
lhand 17.2828 28.4074
lfingers 7.12502
lthumb 41.9959 52.9988
rfemur -13.8921 12.818 28.8232
rtibia 33.6258
rfoot -43.8433 -26.9312
rtoes 10.0901
lfemur 101.482 155.451 134.186
ltibia 66.9864
lfoot -31.4677 23.397
ltoes -0.751963
901
root 1.15685 15.3462 -17.7254 26.8498 -33.3565 -363.438
lowerback -8.52746 5.04272 -11.6483
upperback -10.272 6.79796 -5.6544
thorax -6.92076 3.90437 0.528991
lowerneck -13.3789 5.15599 5.34512
upperneck 36.462 4.3267 4.57217
head 14.9739 3.13178 1.66147
rclavicle 8.38871e-014 4.13472e-014
rhumerus 69.5559 -41.6427 -82.888
rradius 11.4043
rwrist 43.3153
rhand 9.29397 8.52593
rfingers 7.12502
rthumb 34.4564 -18.1553
lclavicle 8.38871e-014 4.13472e-014
lhumerus 17.7465 26.5894 23.4354
lradius 18.6194
lwrist -38.6385
lhand 18.3429 28.5996
lfingers 7.12502
lthumb 42.9884 52.8497
rfemur -14.6498 12.9131 28.095
rtibia 33.9519
rfoot -44.791 -28.1859
rtoes 11.3795
lfemur 101.55 156.04 133.461
ltibia 66.1834
lfoot -30.4846 24.5274
ltoes 1.07878
902
root 1.19377 15.3311 -17.8232 26.3801 -33.4568 -363.026
lowerback -8.73828 4.93397 -11.1928
upperback -10.0915 6.69143 -5.5887
thorax -6.52529 3.80781 0.407257
lowerneck -13.2543 5.38674 5.18214
upperneck 36.5196 4.78426 4.4185
head 14.966 3.28135 1.69761
rclavicle 3.4191e-014 -1.27222e-014
rhumerus 73.9495 -41.037 -88.4778
rradius 11.2105
rwrist 48.1808
rhand 9.75493 7.98102
rfingers 7.12502
rthumb 34.8939 -18.5998
lclavicle 3.4191e-014 -1.27222e-014
lhumerus 18.9816 26.6994 24.0263
lradius 18.8825
lwrist -38.2819
lhand 18.8723 29.1463
lfingers 7.12502
lthumb 43.4831 53.2192
rfemur -14.8651 12.5764 27.7624
rtibia 34.1944
rfoot -45.3897 -27.4127
rtoes 11.9778
lfemur 102.23 156.456 133.435
ltibia 65.2671
lfoot -29.7926 24.9127
ltoes 2.41112
903
root 1.22568 15.3263 -17.9547 25.8614 -33.6534 -362.509
lowerback -8.38126 4.87283 -11.246
upperback -10.2207 6.54692 -5.49493
thorax -6.87673 3.75602 0.481943
lowerneck -12.9258 5.57158 5.1901
upperneck 36.8646 5.14446 4.23037
head 15.0604 3.40916 1.67933
rclavicle 7.10655e-014 3.49861e-014
rhumerus 76.674 -40.1254 -92.1243
rradius 11.1133
rwrist 52.1121
rhand 10.2896 7.60803
rfingers 7.12502
rthumb 35.401 -18.8534
lclavicle 7.10655e-014 3.49861e-014
lhumerus 20.1615 25.8589 24.3526
lradius 19.0186
lwrist -37.501
lhand 19.0954 29.5886
lfingers 7.12502
lthumb 43.6915 53.5856
rfemur -15.2921 13.0402 27.4088
rtibia 34.5151
rfoot -46.62 -28.3097
rtoes 11.1171
lfemur 102.708 156.808 133.316
ltibia 64.2692
lfoot -29.3731 24.5293
ltoes 2.45105
904
root 1.26014 15.3383 -18.0723 25.4569 -33.6801 -362.062
lowerback -8.14582 4.79291 -11.0757
upperback -10.3298 6.38817 -5.46833
thorax -7.09403 3.67511 0.387617
lowerneck -12.5825 5.74153 5.27087
upperneck 37.1045 5.44567 4.09307
head 15.1052 3.52847 1.65448
rclavicle -1.63003e-014 -2.38542e-014
rhumerus 78.7565 -39.0952 -94.993
rradius 11.1046
rwrist 55.4209
rhand 10.8287 7.70835
rfingers 7.12502
rthumb 35.9119 -18.6297
lclavicle -1.63003e-014 -2.38542e-014
lhumerus 22.2881 27.3092 26.0027
lradius 18.6862
lwrist -39.2401
lhand 18.5728 27.3554
lfingers 7.12502
lthumb 43.2033 51.5291
rfemur -15.6158 13.201 27.0804
rtibia 34.6551
rfoot -47.0836 -27.3581
rtoes 14.799
lfemur 103.115 157.147 133.233
ltibia 63.3446
lfoot -28.8864 24.1907
ltoes 1.68471
